<svg xmlns="http://www.w3.org/2000/svg" xmlns:xlink="http://www.w3.org/1999/xlink" version="1.1" viewBox="223.24 287.27 590.83 438.18">
<g id="surface1">
<path style=" stroke:none;fill-rule:evenodd;fill:rgb(76.078431%,81.960784%,85.490196%);fill-opacity:1;" d="M 493.566406 396.085938 C 489.625 398.660156 477.777344 405.285156 467.242188 410.816406 L 448.082031 420.863281 L 463.679688 428.179688 C 473.773438 432.914062 481.042969 437.878906 484.265625 442.25 C 491.054688 451.453125 502.964844 459.296875 507.8125 457.757812 C 509.945312 457.082031 515.261719 453.058594 519.628906 448.820312 C 523.996094 444.582031 534.894531 437.179688 543.847656 432.371094 C 552.800781 427.558594 560.9375 422.839844 561.929688 421.878906 C 562.9375 420.898438 559.058594 417.601562 553.066406 414.351562 C 547.203125 411.175781 535.796875 404.675781 527.714844 399.90625 C 510.972656 390.023438 504.042969 389.25 493.566406 396.085938 M 440.320312 444.285156 C 408.761719 453.949219 380.488281 483.382812 366.941406 520.679688 C 362.152344 533.859375 361.535156 538.582031 361.507812 562.175781 C 361.46875 591.003906 363.433594 599.773438 375.183594 623.277344 C 395.390625 663.679688 442.769531 686.539062 486.890625 677.167969 C 509.667969 672.332031 527.3125 662.941406 542.90625 647.351562 C 564.664062 625.59375 564.527344 623.183594 542.195312 634.890625 C 519.988281 646.527344 503.308594 651.265625 484.503906 651.265625 C 437.890625 651.265625 393.269531 609.5 389.71875 562.542969 C 385.921875 512.355469 409.160156 470.300781 453.640625 446.859375 L 461.824219 442.546875 L 453.632812 442.632812 C 449.125 442.679688 443.136719 443.425781 440.320312 444.285156 M 409.691406 503.402344 C 403.441406 509.652344 400.203125 522.324219 402.351562 532.109375 C 403.058594 535.335938 406.257812 541.113281 409.460938 544.953125 L 415.289062 551.9375 L 437.238281 552.640625 C 460.378906 553.382812 464.183594 552.199219 461.890625 544.976562 C 460.796875 541.535156 458.859375 540.671875 452.238281 540.671875 L 443.949219 540.671875 L 445.542969 497.664062 L 430.484375 497.664062 C 416.722656 497.664062 414.933594 498.15625 409.691406 503.402344 M 467.773438 501.976562 C 464.523438 505.5625 463.871094 509.476562 463.871094 525.3125 C 463.871094 541.148438 464.523438 545.0625 467.773438 548.648438 C 473.777344 555.28125 483.804688 554.394531 490.3125 546.660156 C 495.023438 541.0625 495.617188 538.578125 495.617188 524.40625 C 495.617188 511.371094 494.839844 507.46875 491.371094 503.058594 C 485.875 496.070312 473.625 495.507812 467.773438 501.976562 M 497.664062 521.074219 C 497.664062 549.324219 499.644531 552.960938 515.019531 552.960938 C 527.679688 552.960938 530.058594 547.929688 530.589844 520.019531 C 530.980469 499.644531 530.800781 498.660156 526.617188 498.03125 C 522.621094 497.4375 522.230469 498.332031 522.136719 508.273438 C 522.023438 520.035156 520.492188 535.945312 519.054688 540.304688 C 518.5625 541.789062 516.082031 542.710938 513.542969 542.351562 C 509.164062 541.730469 508.875 540.589844 507.902344 520.191406 C 506.933594 499.808594 506.640625 498.652344 502.273438 498.03125 C 497.722656 497.386719 497.664062 497.671875 497.664062 521.074219 M 534.527344 525.3125 L 534.527344 552.960938 L 545.410156 552.960938 C 554.808594 552.960938 557.085938 552.128906 562.132812 546.859375 C 566.660156 542.132812 568.179688 538.320312 568.875 529.90625 C 570.597656 509.144531 560.945312 497.664062 541.761719 497.664062 L 534.527344 497.664062 L 534.527344 525.3125 M 416.675781 512.933594 C 410.824219 518.78125 410.523438 521.726562 414.742188 531.824219 C 418.351562 540.46875 423.121094 544.613281 429.566406 544.703125 C 433.984375 544.765625 434.175781 544.058594 434.175781 527.578125 C 434.175781 513.792969 433.535156 510.144531 430.9375 509.148438 C 425.144531 506.925781 421.792969 507.8125 416.675781 512.933594 M 472.859375 513.535156 C 470.007812 520.914062 471.753906 536.121094 475.933594 540.296875 C 478.964844 543.332031 479.5 543.328125 482.574219 540.253906 C 486.585938 536.242188 487.0625 515.472656 483.242188 510.875 C 479.425781 506.277344 475.25 507.34375 472.859375 513.535156 M 546.132812 509.269531 C 545.382812 510.019531 544.769531 517.851562 544.769531 526.679688 C 544.769531 543.625 546.816406 546.523438 553.839844 539.503906 C 559.070312 534.269531 558.875 517.425781 553.511719 511.488281 C 550.039062 507.636719 548.289062 507.113281 546.132812 509.269531 M 424.546875 559.023438 C 415.847656 564.328125 411.648438 573.007812 411.648438 585.691406 C 411.648438 599.429688 416.003906 609.273438 424.324219 614.347656 C 432.859375 619.550781 449.484375 620.058594 452.199219 615.199219 C 453.894531 612.167969 454.148438 612.167969 455.3125 615.199219 C 457.195312 620.113281 461.878906 619.1875 464.523438 613.375 C 466.433594 609.1875 468.308594 608.257812 474.859375 608.257812 C 481.128906 608.257812 483.578125 609.363281 486.210938 613.375 C 489.664062 618.644531 496.371094 620.195312 498.789062 616.285156 C 499.539062 615.070312 496.253906 602.859375 491.484375 589.148438 C 478.285156 551.21875 474.890625 550.757812 463.890625 585.398438 L 456.273438 609.390625 L 444.179688 608.234375 C 427.707031 606.660156 422.910156 601.851562 422.910156 586.910156 C 422.910156 572.414062 427.273438 567.296875 439.613281 567.296875 C 447.09375 567.296875 448.511719 566.65625 448.511719 563.273438 C 448.511719 554.871094 435.21875 552.511719 424.546875 559.023438 M 504.894531 563.574219 C 504.378906 565.058594 503.691406 577.792969 503.371094 591.871094 L 502.785156 617.472656 L 507.902344 617.472656 C 512.816406 617.472656 513.066406 616.851562 514.046875 602.195312 L 515.070312 586.917969 L 519.792969 601.671875 C 524.328125 615.835938 529.234375 621.851562 533.816406 618.863281 C 534.992188 618.097656 538.878906 610.097656 542.457031 601.089844 L 548.957031 584.703125 L 548.398438 602.113281 C 547.863281 618.800781 548.03125 619.546875 552.449219 620.175781 C 556.980469 620.820312 557.054688 620.472656 557.078125 598.671875 C 557.089844 586.484375 557.671875 573.058594 558.371094 568.832031 C 559.566406 561.597656 559.332031 561.152344 554.300781 561.152344 C 547.980469 561.152344 545.457031 564.726562 537.335938 585.191406 C 534.101562 593.34375 530.996094 599.996094 530.433594 599.972656 C 529.867188 599.953125 526.644531 591.4375 523.265625 581.054688 C 517.632812 563.753906 516.648438 562.121094 511.476562 561.527344 C 508.152344 561.144531 505.449219 561.984375 504.894531 563.574219 M 566.988281 587.71875 C 566.820312 602.390625 566.589844 615.554688 566.476562 616.960938 C 566.363281 618.367188 568.808594 619.8125 571.902344 620.167969 C 577.375 620.796875 577.535156 620.527344 577.535156 610.703125 L 577.535156 600.585938 L 588.15625 599.5625 C 595.882812 598.824219 599.792969 597.292969 602.492188 593.957031 C 608.082031 587.054688 607.265625 576.679688 600.574219 569.570312 C 595.785156 564.476562 592.878906 563.394531 581.121094 562.3125 L 567.296875 561.039062 L 566.988281 587.71875 M 640.34375 562.519531 C 639.589844 563.269531 638.976562 573.339844 638.976562 584.898438 C 638.976562 610.703125 634.929688 616.90625 622.457031 610.230469 C 618.910156 608.332031 618.496094 605.761719 618.496094 585.65625 L 618.496094 563.199219 L 608.257812 563.199219 L 608.257812 586.910156 C 608.257812 610.382812 608.316406 610.679688 614.242188 616.605469 C 618.9375 621.300781 622.0625 622.59375 628.734375 622.59375 C 635.410156 622.59375 638.535156 621.300781 643.230469 616.605469 C 649.152344 610.683594 649.214844 610.363281 649.214844 587.128906 C 649.214844 567.597656 648.667969 563.429688 645.976562 562.394531 C 641.964844 560.855469 642.003906 560.855469 640.34375 562.519531 M 656.292969 568.226562 C 647.523438 576.996094 650.417969 586.945312 664.855469 597.660156 C 677.128906 606.769531 676.3125 611.117188 662.179688 611.941406 C 654.980469 612.359375 651.238281 613.554688 650.414062 615.707031 C 648.574219 620.503906 650.367188 621.933594 659.808594 623.199219 C 674.683594 625.191406 686.078125 617.792969 686.078125 606.136719 C 686.078125 601.976562 679.925781 594.984375 666.730469 584.152344 C 661.894531 580.183594 661.460938 579.03125 663.765625 576.253906 C 665.804688 573.796875 668.636719 573.296875 675.324219 574.214844 C 682.371094 575.183594 684.445312 574.746094 685.464844 572.089844 C 689.046875 562.757812 664.949219 559.566406 656.292969 568.226562 M 577.535156 580.457031 C 577.535156 587.914062 580.347656 589.742188 589.3125 588.128906 C 592.429688 587.566406 593.921875 585.851562 593.921875 582.824219 C 593.921875 576.761719 590.152344 573.441406 583.269531 573.441406 C 578.105469 573.441406 577.535156 574.136719 577.535156 580.457031 M 473.179688 586.421875 C 470.128906 597.320312 470.644531 598.601562 477.703125 597.65625 L 482.695312 596.992188 L 479.292969 586.871094 L 475.886719 576.753906 L 473.179688 586.421875 "/>
<path style=" stroke:none;fill-rule:evenodd;fill:rgb(13.333333%,36.078431%,59.607843%);fill-opacity:1;" d="M 514.738281 288.71875 C 496.410156 292.636719 478.453125 299.28125 465.070312 307.101562 C 445.726562 318.394531 417.066406 347.269531 405.585938 367.023438 L 396.453125 382.742188 L 383.058594 384.039062 C 375.691406 384.753906 366.898438 386.199219 363.519531 387.25 C 356.308594 389.488281 340.664062 401.664062 332.8125 411.148438 C 325.308594 420.214844 311.832031 446.640625 310.15625 455.570312 C 309.40625 459.574219 307.714844 462.847656 306.402344 462.847656 C 305.089844 462.847656 297.585938 465.9375 289.734375 469.714844 C 261.652344 483.214844 236.839844 516.785156 227.257812 554.253906 C 222.269531 573.757812 221.863281 606.179688 226.382812 623.699219 C 236.25 661.914062 260.707031 692.695312 290.527344 704.410156 C 304.640625 709.957031 324.417969 711.777344 425.984375 716.878906 C 471.601562 719.167969 526.898438 722 548.863281 723.171875 C 570.828125 724.34375 616.910156 725.359375 651.265625 725.429688 C 709.472656 725.554688 714.636719 725.265625 727.039062 721.234375 C 765.847656 708.621094 797.183594 676.984375 809.53125 637.953125 C 813.203125 626.347656 814.066406 618.742188 814.070312 598.015625 C 814.082031 565.011719 808.144531 544.851562 792.109375 523.441406 C 779.398438 506.464844 766.570312 496.757812 733.671875 479.230469 L 708.6875 465.921875 L 708.648438 456.105469 C 708.59375 442.886719 703.554688 419.300781 697.457031 403.746094 C 687.796875 379.089844 669.980469 358.765625 628.082031 324.609375 C 603.492188 304.558594 596.066406 300.039062 577.042969 293.523438 C 560.582031 287.886719 529.746094 285.507812 514.738281 288.71875 M 493.566406 396.085938 C 489.625 398.660156 477.777344 405.285156 467.242188 410.816406 L 448.082031 420.863281 L 463.679688 428.179688 C 473.773438 432.914062 481.042969 437.878906 484.265625 442.25 C 491.054688 451.453125 502.964844 459.296875 507.8125 457.757812 C 509.945312 457.082031 515.261719 453.058594 519.628906 448.820312 C 523.996094 444.582031 534.894531 437.179688 543.847656 432.371094 C 552.800781 427.558594 560.9375 422.839844 561.929688 421.878906 C 562.9375 420.898438 559.058594 417.601562 553.066406 414.351562 C 547.203125 411.175781 535.796875 404.675781 527.714844 399.90625 C 510.972656 390.023438 504.042969 389.25 493.566406 396.085938 M 440.320312 444.285156 C 408.761719 453.949219 380.488281 483.382812 366.941406 520.679688 C 362.152344 533.859375 361.535156 538.582031 361.507812 562.175781 C 361.46875 591.003906 363.433594 599.773438 375.183594 623.277344 C 395.390625 663.679688 442.769531 686.539062 486.890625 677.167969 C 509.667969 672.332031 527.3125 662.941406 542.90625 647.351562 C 564.664062 625.59375 564.527344 623.183594 542.195312 634.890625 C 519.988281 646.527344 503.308594 651.265625 484.503906 651.265625 C 437.890625 651.265625 393.269531 609.5 389.71875 562.542969 C 385.921875 512.355469 409.160156 470.300781 453.640625 446.859375 L 461.824219 442.546875 L 453.632812 442.632812 C 449.125 442.679688 443.136719 443.425781 440.320312 444.285156 M 409.691406 503.402344 C 403.441406 509.652344 400.203125 522.324219 402.351562 532.109375 C 403.058594 535.335938 406.257812 541.113281 409.460938 544.953125 L 415.289062 551.9375 L 437.238281 552.640625 C 460.378906 553.382812 464.183594 552.199219 461.890625 544.976562 C 460.796875 541.535156 458.859375 540.671875 452.238281 540.671875 L 443.949219 540.671875 L 445.542969 497.664062 L 430.484375 497.664062 C 416.722656 497.664062 414.933594 498.15625 409.691406 503.402344 M 467.773438 501.976562 C 464.523438 505.5625 463.871094 509.476562 463.871094 525.3125 C 463.871094 541.148438 464.523438 545.0625 467.773438 548.648438 C 473.777344 555.28125 483.804688 554.394531 490.3125 546.660156 C 495.023438 541.0625 495.617188 538.578125 495.617188 524.40625 C 495.617188 511.371094 494.839844 507.46875 491.371094 503.058594 C 485.875 496.070312 473.625 495.507812 467.773438 501.976562 M 497.664062 521.074219 C 497.664062 549.324219 499.644531 552.960938 515.019531 552.960938 C 527.679688 552.960938 530.058594 547.929688 530.589844 520.019531 C 530.980469 499.644531 530.800781 498.660156 526.617188 498.03125 C 522.621094 497.4375 522.230469 498.332031 522.136719 508.273438 C 522.023438 520.035156 520.492188 535.945312 519.054688 540.304688 C 518.5625 541.789062 516.082031 542.710938 513.542969 542.351562 C 509.164062 541.730469 508.875 540.589844 507.902344 520.191406 C 506.933594 499.808594 506.640625 498.652344 502.273438 498.03125 C 497.722656 497.386719 497.664062 497.671875 497.664062 521.074219 M 534.527344 525.3125 L 534.527344 552.960938 L 545.410156 552.960938 C 554.808594 552.960938 557.085938 552.128906 562.132812 546.859375 C 566.660156 542.132812 568.179688 538.320312 568.875 529.90625 C 570.597656 509.144531 560.945312 497.664062 541.761719 497.664062 L 534.527344 497.664062 L 534.527344 525.3125 M 416.675781 512.933594 C 410.824219 518.78125 410.523438 521.726562 414.742188 531.824219 C 418.351562 540.46875 423.121094 544.613281 429.566406 544.703125 C 433.984375 544.765625 434.175781 544.058594 434.175781 527.578125 C 434.175781 513.792969 433.535156 510.144531 430.9375 509.148438 C 425.144531 506.925781 421.792969 507.8125 416.675781 512.933594 M 472.859375 513.535156 C 470.007812 520.914062 471.753906 536.121094 475.933594 540.296875 C 478.964844 543.332031 479.5 543.328125 482.574219 540.253906 C 486.585938 536.242188 487.0625 515.472656 483.242188 510.875 C 479.425781 506.277344 475.25 507.34375 472.859375 513.535156 M 546.132812 509.269531 C 545.382812 510.019531 544.769531 517.851562 544.769531 526.679688 C 544.769531 543.625 546.816406 546.523438 553.839844 539.503906 C 559.070312 534.269531 558.875 517.425781 553.511719 511.488281 C 550.039062 507.636719 548.289062 507.113281 546.132812 509.269531 M 424.546875 559.023438 C 415.847656 564.328125 411.648438 573.007812 411.648438 585.691406 C 411.648438 599.429688 416.003906 609.273438 424.324219 614.347656 C 432.859375 619.550781 449.484375 620.058594 452.199219 615.199219 C 453.894531 612.167969 454.148438 612.167969 455.3125 615.199219 C 457.195312 620.113281 461.878906 619.1875 464.523438 613.375 C 466.433594 609.1875 468.308594 608.257812 474.859375 608.257812 C 481.128906 608.257812 483.578125 609.363281 486.210938 613.375 C 489.664062 618.644531 496.371094 620.195312 498.789062 616.285156 C 499.539062 615.070312 496.253906 602.859375 491.484375 589.148438 C 478.285156 551.21875 474.890625 550.757812 463.890625 585.398438 L 456.273438 609.390625 L 444.179688 608.234375 C 427.707031 606.660156 422.910156 601.851562 422.910156 586.910156 C 422.910156 572.414062 427.273438 567.296875 439.613281 567.296875 C 447.09375 567.296875 448.511719 566.65625 448.511719 563.273438 C 448.511719 554.871094 435.21875 552.511719 424.546875 559.023438 M 504.894531 563.574219 C 504.378906 565.058594 503.691406 577.792969 503.371094 591.871094 L 502.785156 617.472656 L 507.902344 617.472656 C 512.816406 617.472656 513.066406 616.851562 514.046875 602.195312 L 515.070312 586.917969 L 519.792969 601.671875 C 524.328125 615.835938 529.234375 621.851562 533.816406 618.863281 C 534.992188 618.097656 538.878906 610.097656 542.457031 601.089844 L 548.957031 584.703125 L 548.398438 602.113281 C 547.863281 618.800781 548.03125 619.546875 552.449219 620.175781 C 556.980469 620.820312 557.054688 620.472656 557.078125 598.671875 C 557.089844 586.484375 557.671875 573.058594 558.371094 568.832031 C 559.566406 561.597656 559.332031 561.152344 554.300781 561.152344 C 547.980469 561.152344 545.457031 564.726562 537.335938 585.191406 C 534.101562 593.34375 530.996094 599.996094 530.433594 599.972656 C 529.867188 599.953125 526.644531 591.4375 523.265625 581.054688 C 517.632812 563.753906 516.648438 562.121094 511.476562 561.527344 C 508.152344 561.144531 505.449219 561.984375 504.894531 563.574219 M 566.988281 587.71875 C 566.820312 602.390625 566.589844 615.554688 566.476562 616.960938 C 566.363281 618.367188 568.808594 619.8125 571.902344 620.167969 C 577.375 620.796875 577.535156 620.527344 577.535156 610.703125 L 577.535156 600.585938 L 588.15625 599.5625 C 595.882812 598.824219 599.792969 597.292969 602.492188 593.957031 C 608.082031 587.054688 607.265625 576.679688 600.574219 569.570312 C 595.785156 564.476562 592.878906 563.394531 581.121094 562.3125 L 567.296875 561.039062 L 566.988281 587.71875 M 640.34375 562.519531 C 639.589844 563.269531 638.976562 573.339844 638.976562 584.898438 C 638.976562 610.703125 634.929688 616.90625 622.457031 610.230469 C 618.910156 608.332031 618.496094 605.761719 618.496094 585.65625 L 618.496094 563.199219 L 608.257812 563.199219 L 608.257812 586.910156 C 608.257812 610.382812 608.316406 610.679688 614.242188 616.605469 C 618.9375 621.300781 622.0625 622.59375 628.734375 622.59375 C 635.410156 622.59375 638.535156 621.300781 643.230469 616.605469 C 649.152344 610.683594 649.214844 610.363281 649.214844 587.128906 C 649.214844 567.597656 648.667969 563.429688 645.976562 562.394531 C 641.964844 560.855469 642.003906 560.855469 640.34375 562.519531 M 656.292969 568.226562 C 647.523438 576.996094 650.417969 586.945312 664.855469 597.660156 C 677.128906 606.769531 676.3125 611.117188 662.179688 611.941406 C 654.980469 612.359375 651.238281 613.554688 650.414062 615.707031 C 648.574219 620.503906 650.367188 621.933594 659.808594 623.199219 C 674.683594 625.191406 686.078125 617.792969 686.078125 606.136719 C 686.078125 601.976562 679.925781 594.984375 666.730469 584.152344 C 661.894531 580.183594 661.460938 579.03125 663.765625 576.253906 C 665.804688 573.796875 668.636719 573.296875 675.324219 574.214844 C 682.371094 575.183594 684.445312 574.746094 685.464844 572.089844 C 689.046875 562.757812 664.949219 559.566406 656.292969 568.226562 M 577.535156 580.457031 C 577.535156 587.914062 580.347656 589.742188 589.3125 588.128906 C 592.429688 587.566406 593.921875 585.851562 593.921875 582.824219 C 593.921875 576.761719 590.152344 573.441406 583.269531 573.441406 C 578.105469 573.441406 577.535156 574.136719 577.535156 580.457031 M 473.179688 586.421875 C 470.128906 597.320312 470.644531 598.601562 477.703125 597.65625 L 482.695312 596.992188 L 479.292969 586.871094 L 475.886719 576.753906 L 473.179688 586.421875 "/>
</g>
</svg>