<?xml version="1.0" standalone="no"?>
<!DOCTYPE svg PUBLIC "-//W3C//DTD SVG 20010904//EN"
 "http://www.w3.org/TR/2001/REC-SVG-20010904/DTD/svg10.dtd">
<svg version="1.0" xmlns="http://www.w3.org/2000/svg"
 width="500.000000pt" height="500.000000pt" viewBox="0 0 500.000000 500.000000"
 preserveAspectRatio="xMidYMid meet">

<g transform="translate(0.000000,500.000000) scale(0.100000,-0.100000)"
fill="#000000" stroke="none">
<path d="M2350 4769 c-74 -22 -166 -48 -205 -59 -38 -10 -288 -81 -555 -157
l-485 -139 -426 -552 -425 -553 -26 -487 -27 -487 39 -244 40 -244 197 -377
198 -377 225 -199 c242 -214 249 -220 566 -432 l211 -141 419 -66 419 -66 690
202 690 202 231 306 c127 168 315 416 417 551 l186 246 33 492 34 493 -231
605 -230 605 -508 404 c-279 223 -514 405 -521 405 -8 0 -195 25 -416 55 -221
30 -403 55 -404 54 0 0 -62 -18 -136 -40z m480 -29 l275 -38 -450 0 -450 -1
145 43 c85 25 157 41 175 39 17 -3 154 -22 305 -43z m470 -89 c0 -26 -69 -504
-74 -508 -2 -2 -243 115 -537 261 l-534 264 573 1 c552 1 572 0 572 -18z
m-1321 -447 c-51 -247 -93 -450 -94 -451 -1 -2 -192 61 -425 139 -386 128
-422 142 -403 155 59 39 1008 611 1011 609 1 -2 -39 -205 -89 -452z m678 189
c298 -147 540 -269 538 -271 -6 -6 -1279 -370 -1283 -367 -7 6 184 905 193
905 5 0 254 -120 552 -267z m1146 -108 c256 -203 464 -371 462 -373 -5 -5
-998 210 -1007 218 -9 7 64 531 73 528 4 -2 217 -169 472 -373z m-1826 349
c-12 -13 -942 -572 -945 -569 -3 3 85 326 90 330 4 3 841 243 852 244 5 1 7
-2 3 -5z m-938 -445 l-40 -144 -112 -113 c-62 -62 -197 -195 -301 -295 l-190
-182 100 130 c290 380 579 754 581 751 1 -1 -16 -67 -38 -147z m2175 -111 c-4
-13 -53 -180 -109 -373 -100 -340 -103 -350 -129 -353 -26 -3 -26 -4 -27 -95
-1 -97 -18 -174 -37 -169 -19 4 -176 107 -191 125 -7 9 -19 17 -27 17 -7 0
-34 18 -60 41 -26 22 -72 53 -103 68 -66 32 -596 378 -596 389 0 6 1243 369
1273 371 9 1 11 -6 6 -21z m591 -93 c275 -59 501 -109 503 -111 5 -3 -139
-537 -147 -546 -3 -4 -24 -1 -46 7 -27 9 -85 14 -177 15 l-136 0 -29 38 c-32
40 -484 678 -498 701 -6 11 -3 13 11 9 10 -2 244 -53 519 -113z m-305 -255
l252 -355 -1 -189 c-1 -105 -4 -192 -6 -194 -2 -3 -44 1 -92 7 -48 6 -105 11
-125 11 l-38 0 0 170 0 170 -55 0 -55 0 0 -160 0 -160 -42 1 c-24 0 -74 4
-113 10 -38 5 -90 10 -115 12 l-45 3 -3 147 c-2 122 -5 147 -17 147 -8 0 -15
5 -15 11 0 6 43 158 95 337 110 376 116 394 120 390 2 -2 117 -163 255 -358z
m-2053 143 c227 -76 412 -141 411 -145 -7 -19 -593 -433 -596 -421 -6 23 -130
54 -219 54 -64 0 -95 -5 -143 -24 -35 -14 -60 -20 -57 -14 2 7 41 164 87 350
47 194 87 337 93 337 7 0 197 -62 424 -137z m-551 -242 c-81 -331 -85 -343
-121 -382 -69 -77 -99 -190 -77 -288 l10 -43 -31 29 c-18 16 -113 103 -212
194 -99 90 -180 165 -180 166 0 6 689 673 692 670 1 -2 -35 -158 -81 -346z
m3652 -362 c117 -309 212 -562 210 -564 -5 -5 -342 122 -390 147 -24 12 -49
21 -55 20 -16 -4 -16 -3 3 49 9 24 16 76 17 114 1 91 -33 170 -102 234 l-48
46 70 258 c39 141 73 257 76 257 3 0 102 -253 219 -561z m-2668 -9 l0 -451
-142 3 -143 3 -3 268 -2 267 -55 0 -55 0 0 -320 0 -320 200 0 c169 0 200 -2
200 -15 0 -9 -6 -12 -17 -9 -16 5 -15 3 1 -10 31 -25 10 -30 -24 -6 -17 12
-34 20 -36 17 -3 -3 13 -16 35 -29 l41 -23 0 -148 0 -148 -22 7 c-13 4 -181
86 -375 182 l-352 175 62 21 c69 23 75 34 53 88 l-15 35 -53 -18 c-80 -28
-182 -25 -245 6 -50 25 -109 92 -101 115 2 6 20 -1 41 -16 21 -14 41 -24 43
-21 3 2 -12 14 -32 26 -45 27 -39 39 8 16 l33 -16 -25 20 c-28 22 -21 42 7 20
15 -11 16 -11 6 1 -15 17 -17 34 -3 25 6 -3 10 -2 10 3 0 15 244 186 265 185
11 -1 14 1 7 4 -16 6 -5 23 15 23 8 0 24 11 35 25 22 28 13 30 93 -21 14 -9
25 -14 25 -10 0 3 -18 18 -40 32 -22 15 -38 29 -35 32 2 3 23 -7 45 -22 22
-14 40 -23 40 -19 0 5 -16 18 -36 31 l-35 23 288 209 c158 115 289 209 291
209 1 1 2 -202 2 -449z m278 289 c136 -89 253 -167 261 -174 11 -11 2 -13 -47
-14 -85 -1 -162 -32 -221 -90 -79 -77 -96 -118 -96 -236 0 -117 20 -171 89
-238 54 -52 106 -77 191 -92 63 -10 68 -13 48 -24 -17 -8 -29 -9 -42 -1 -30
15 -36 12 -12 -7 21 -18 18 -20 -198 -175 -120 -87 -222 -158 -225 -158 -3 0
-6 68 -6 150 0 136 2 150 18 150 16 1 16 1 0 11 -10 5 -18 15 -18 20 0 6 15 1
34 -10 50 -31 55 -25 8 9 l-42 30 0 505 c0 278 3 505 6 505 3 0 116 -72 252
-161z m-1649 -482 c108 -98 196 -181 196 -185 0 -4 -90 -223 -200 -487 l-200
-479 -6 165 c-4 91 -10 397 -14 679 -7 496 -7 514 11 500 10 -8 106 -95 213
-193z m626 182 c25 -6 42 -15 39 -21 -3 -5 -15 -6 -27 -3 -12 2 -16 2 -9 -1 6
-3 10 -10 6 -15 -3 -5 -18 0 -34 11 -40 28 -51 25 -15 -5 40 -32 20 -32 -28 1
-21 14 -41 24 -43 21 -2 -2 14 -16 37 -31 22 -15 38 -30 35 -33 -3 -3 -38 -29
-78 -58 l-73 -53 -43 30 c-24 17 -45 28 -48 25 -2 -2 14 -16 37 -31 22 -15 38
-30 35 -33 -3 -3 -24 6 -46 21 -22 14 -40 23 -40 19 0 -5 16 -18 36 -31 47
-31 36 -41 -13 -12 l-38 22 28 -24 c34 -30 36 -46 2 -24 -28 19 -34 10 -7 -10
16 -13 16 -13 -1 -14 -11 0 -15 -5 -11 -11 4 -7 1 -10 -7 -7 -33 11 -16 129
27 186 61 79 166 109 279 81z m1351 -8 c50 -23 101 -83 115 -136 57 -210 -149
-379 -327 -269 -149 91 -136 334 21 405 52 24 138 24 191 0z m1602 -11 c23
-10 42 -23 42 -28 0 -4 -6 -31 -14 -58 -8 -27 -22 -75 -30 -107 -9 -32 -20
-55 -25 -53 -4 3 -32 40 -61 82 -30 43 -48 74 -42 70 7 -4 12 -2 12 3 0 6 -4
11 -9 11 -12 0 -56 46 -56 59 0 6 -9 17 -20 25 -33 25 146 22 203 -4z m-183
-80 c0 -3 10 -15 23 -28 12 -12 20 -27 17 -32 -4 -6 1 -13 9 -16 14 -5 86 -97
86 -109 0 -3 -16 -5 -35 -5 -19 0 -35 4 -35 10 0 10 -73 60 -87 60 -5 0 12
-14 37 -30 48 -32 40 -41 -13 -13 -30 15 -31 15 -17 -2 13 -16 12 -17 -5 -14
-18 4 -20 14 -22 124 l-3 120 23 -30 c12 -16 22 -32 22 -35z m-1062 -50 c31
-19 57 -37 57 -41 0 -4 -13 -17 -30 -29 l-30 -21 -45 31 c-25 17 -45 27 -45
23 0 -5 18 -19 39 -33 22 -13 37 -28 35 -32 -3 -5 -19 1 -35 13 -17 12 -32 19
-35 16 -2 -2 7 -12 22 -21 31 -21 25 -33 -8 -15 l-23 12 20 -23 20 -23 -21 7
c-17 5 -22 3 -20 -10 0 -9 -4 -19 -10 -21 -7 -2 -9 21 -6 76 3 57 0 93 -12
127 -9 26 -16 49 -16 51 0 2 19 -9 43 -25 23 -15 68 -43 100 -62z m1366 -19
c13 -64 -7 -161 -34 -161 -19 0 -85 29 -85 38 0 7 44 177 56 215 5 16 9 14 29
-13 13 -18 28 -53 34 -79z m-1250 -181 c17 -63 59 -218 94 -345 35 -126 63
-232 61 -234 -2 -2 -12 3 -21 11 -33 28 -87 40 -215 45 l-128 6 0 -177 c0 -97
-4 -176 -9 -176 -20 0 -96 32 -103 43 -4 7 -8 62 -8 124 l0 111 -51 37 c-37
26 -59 35 -81 33 -28 -3 -37 -13 -84 -98 -30 -52 -55 -99 -57 -105 -5 -14
-175 45 -201 71 -11 11 -22 27 -24 35 -4 18 -41 47 -69 55 -13 3 -23 10 -23
14 0 5 -6 15 -14 22 -11 12 15 34 167 143 99 72 186 134 193 138 8 4 25 1 41
-9 l28 -16 -24 21 c-23 21 -23 22 -5 36 10 8 42 22 69 31 73 25 114 54 177
125 l55 63 47 -28 c53 -31 63 -28 11 4 -46 28 -46 48 1 21 46 -28 59 -27 15 1
-19 12 -29 24 -22 26 7 2 18 -1 24 -7 6 -6 16 -11 22 -11 5 0 -1 9 -15 20 -18
14 -20 20 -10 20 9 0 21 -5 28 -12 8 -8 12 -9 12 -1 0 6 -6 13 -12 16 -12 5
-2 15 66 69 27 21 26 21 65 -122z m161 94 c27 -20 50 -32 50 -27 0 4 -19 20
-43 35 -23 15 -35 28 -26 28 8 0 24 -7 35 -15 23 -17 38 -19 28 -4 -5 9 17 10
82 5 140 -12 137 -10 129 -65 -11 -73 -32 -108 -79 -131 -23 -11 -58 -20 -77
-20 -54 1 -113 33 -131 71 -16 35 -35 159 -24 159 3 0 28 -16 56 -36z m435
-24 c35 -23 57 -27 29 -5 -17 15 -12 15 66 9 47 -3 88 -8 93 -11 4 -2 7 -60 7
-129 l0 -124 71 0 c61 0 70 -2 59 -14 -6 -8 -19 -12 -28 -9 -14 4 -15 3 -2 -6
8 -5 11 -13 8 -16 -4 -4 -17 0 -30 9 -12 9 -27 16 -33 16 -5 -1 3 -8 18 -16
18 -10 27 -21 23 -30 -3 -9 -70 -103 -148 -211 -136 -187 -143 -195 -148 -165
-4 22 -17 40 -47 61 -24 17 -43 36 -43 42 0 6 -24 9 -62 7 l-63 -3 0 -220 c0
-214 -1 -221 -23 -252 -13 -18 -27 -33 -31 -33 -4 0 -14 24 -21 53 -9 41 -10
59 -1 75 7 12 14 51 18 86 5 58 3 69 -21 110 -14 24 -42 58 -62 74 -35 29 -39
40 -100 259 -35 125 -64 231 -64 235 0 4 16 -4 36 -17 53 -36 109 -48 190 -42
148 11 221 83 241 240 7 54 20 59 68 27z m378 -45 c39 -27 51 -25 16 4 -20 16
-19 16 28 13 78 -5 79 -6 28 -72 -47 -61 -47 -61 -93 -58 l-47 3 -3 68 c-3 59
-1 67 15 67 10 0 35 -11 56 -25z m-3661 -612 c2 -144 2 -260 0 -258 -2 2 -14
66 -26 142 l-23 140 16 294 16 294 7 -175 c4 -96 8 -293 10 -437z m3868 594
l32 -14 -34 -28 -33 -28 -6 24 c-10 35 -10 59 0 59 5 0 23 -6 41 -13z m-63
-73 c-9 -10 -77 -22 -77 -15 0 4 15 27 32 51 l33 44 8 -38 c5 -20 7 -39 4 -42z
m263 -14 c46 -30 80 -42 44 -15 -10 8 -17 14 -14 15 3 0 93 -33 200 -74 124
-47 194 -78 192 -86 -2 -7 -69 -168 -149 -356 l-146 -344 -36 38 c-32 33 -86
73 -174 126 -22 13 -27 24 -25 44 5 48 47 52 178 16 11 -3 21 10 33 44 l18 47
-27 22 c-49 39 -146 83 -183 83 -20 0 -42 4 -50 9 -18 12 -65 255 -50 260 6 2
3 11 -7 22 -23 25 -9 24 28 -2 16 -12 32 -19 34 -16 3 3 -13 16 -35 29 -55 31
-57 44 -13 67 20 10 57 37 82 60 25 22 47 40 50 41 3 0 25 -14 50 -30z m-3561
-219 c29 -123 51 -224 49 -226 -2 -1 -21 -12 -43 -23 -121 -61 -185 -190 -164
-327 15 -93 70 -165 162 -211 26 -13 47 -28 47 -32 0 -11 66 -42 90 -42 10 0
22 -4 25 -10 3 -5 14 -10 24 -10 14 0 21 -12 28 -51 8 -36 7 -49 -1 -46 -6 2
-163 55 -349 118 -286 96 -337 117 -333 131 11 47 402 966 407 960 4 -4 30
-108 58 -231z m121 128 c29 -11 83 -23 119 -26 49 -4 76 -12 106 -32 58 -40
69 -46 61 -33 -7 13 186 -79 482 -227 l203 -102 -78 -64 c-43 -35 -81 -65 -84
-65 -3 0 -19 28 -35 61 -22 47 -42 72 -81 100 -29 22 -61 39 -71 39 -15 0 -40
-46 -117 -212 -54 -117 -116 -249 -136 -293 l-38 -80 -11 32 c-7 19 -33 47
-66 72 -53 40 -56 41 -83 26 -16 -8 -46 -17 -67 -21 l-39 -6 -28 124 c-15 67
-27 128 -27 134 0 6 12 16 27 23 35 16 160 30 171 19 5 -5 22 -10 38 -12 16
-2 35 -6 42 -8 8 -2 21 16 33 45 l19 48 -62 40 c-79 51 -148 71 -247 71 l-78
0 -48 206 c-27 114 -50 216 -53 227 -4 14 8 8 45 -23 28 -24 74 -52 103 -63z
m3208 -27 c2 -8 -3 -10 -15 -6 -17 5 -17 5 0 -6 34 -22 16 -31 -20 -10 -30 17
-33 18 -17 3 11 -10 30 -25 42 -33 17 -12 26 -37 42 -120 26 -139 26 -146 -7
-153 -112 -22 -172 -156 -114 -251 19 -30 42 -46 122 -84 91 -43 100 -50 105
-80 9 -47 -8 -62 -71 -62 -35 0 -67 8 -100 25 -27 13 -52 22 -56 20 -7 -5 -39
-91 -39 -105 0 -4 19 -15 43 -26 23 -10 46 -24 50 -31 10 -16 63 -44 70 -37 3
3 17 -2 30 -11 14 -9 31 -15 39 -14 7 2 29 0 49 -4 34 -7 37 -11 42 -50 3 -23
4 -43 2 -45 -4 -4 -470 93 -504 104 -10 3 -3 13 22 31 21 15 48 48 62 76 24
50 25 56 25 263 l0 212 -51 37 c-46 33 -55 36 -107 33 l-57 -3 -5 -205 c-5
-226 -12 -254 -68 -266 -15 -3 -32 -7 -38 -9 -6 -2 -17 1 -25 5 -18 12 -27
267 -10 298 15 28 304 426 324 446 8 9 17 21 19 28 3 8 16 5 42 -11 20 -13 39
-21 42 -19 2 3 -12 13 -31 24 -55 29 -45 43 38 47 103 5 120 4 125 -11z m630
-547 c-16 -242 -31 -441 -33 -443 -6 -7 -347 -93 -351 -89 -11 11 41 106 82
149 28 30 45 57 45 75 1 15 3 44 3 63 1 30 274 695 282 687 1 -1 -11 -200 -28
-442z m-3734 194 c98 -18 107 -23 95 -57 l-10 -30 -46 14 c-25 8 -75 14 -110
14 -48 0 -63 3 -63 14 0 8 -3 21 -6 29 -10 26 49 33 140 16z m3176 -35 c0 -16
-8 -23 -30 -28 -23 -4 -35 -15 -46 -42 -14 -35 -14 -39 3 -63 11 -14 40 -37
66 -51 34 -18 48 -33 53 -53 3 -16 3 -31 0 -34 -10 -11 -121 42 -158 75 -81
73 -51 189 59 227 42 14 53 8 53 -31z m128 25 c25 -10 28 -27 10 -52 -12 -15
-17 -15 -65 -1 -49 14 -53 18 -53 46 0 30 0 30 43 23 23 -4 52 -11 65 -16z
m-2748 -56 c74 -158 75 -161 55 -183 -10 -11 -21 -20 -24 -20 -4 0 -19 30 -35
66 -16 36 -32 62 -37 57 -7 -7 -99 -211 -99 -219 0 -2 10 -4 23 -4 21 -1 21
-2 -8 -26 -16 -14 -50 -42 -74 -62 -82 -69 -83 -69 -57 -10 13 29 61 132 106
228 45 96 88 190 96 208 8 17 16 32 18 32 2 0 18 -30 36 -67z m469 31 c27 -45
27 -45 -9 -32 -36 12 -43 22 -35 48 9 29 20 25 44 -16z m483 -84 c2 -66 0
-120 -4 -120 -7 0 -120 41 -126 45 -7 6 104 195 115 195 8 0 13 -35 15 -120z
m501 109 c154 -42 182 -265 42 -334 -55 -27 -159 -32 -224 -10 l-51 17 0 169
0 169 98 0 c53 0 114 -5 135 -11z m407 -132 l0 -143 -31 -42 c-17 -23 -33 -42
-35 -42 -2 0 -4 83 -4 185 l0 185 35 0 35 0 0 -143z m368 -65 c-3 -208 -3
-209 -31 -250 -39 -59 -93 -84 -183 -85 -96 0 -157 29 -190 92 l-23 43 26 39
c27 41 42 39 43 -6 0 -27 33 -76 62 -91 37 -21 128 -17 166 6 55 34 62 66 62
275 l0 185 36 0 35 0 -3 -208z m-2944 182 c13 -33 5 -50 -33 -71 -50 -29 -91
-107 -91 -172 1 -112 98 -211 207 -211 16 0 25 -8 29 -24 9 -39 0 -43 -66 -35
-268 37 -337 356 -110 505 42 27 56 29 64 8z m1116 1 c0 -9 -9 -15 -21 -15
-18 0 -19 2 -9 15 7 8 16 15 21 15 5 0 9 -7 9 -15z m-44 -185 c21 -107 27
-171 26 -247 -1 -93 0 -102 18 -108 11 -4 22 -16 25 -28 13 -50 142 -752 139
-755 -3 -4 -1029 570 -1059 591 -14 11 -3 24 95 105 l112 91 51 -34 c43 -29
61 -35 104 -35 41 0 51 3 47 14 -3 8 4 35 15 60 l20 46 76 0 c71 0 76 -2 87
-25 6 -14 16 -25 22 -25 6 0 34 -15 62 -34 39 -27 62 -35 107 -37 36 -3 56 0
53 6 -3 6 -48 102 -101 214 -52 112 -94 208 -93 213 3 9 160 139 164 135 1 -1
15 -67 30 -147z m30 142 c8 -5 9 -35 5 -97 l-6 -90 -13 75 c-7 41 -15 85 -19
98 -5 23 10 29 33 14z m105 -38 c18 -9 53 -61 112 -164 61 -109 87 -147 94
-138 6 7 32 52 58 101 48 86 55 92 87 79 14 -6 4 -30 -65 -160 -45 -84 -86
-151 -92 -149 -5 2 -47 71 -92 153 -45 82 -88 150 -97 152 -13 3 -16 -17 -18
-150 -3 -133 -5 -153 -20 -156 -31 -6 -44 95 -40 306 3 171 -1 164 73 126z
m276 -95 c9 -3 2 -23 -20 -62 l-33 -58 -23 43 c-12 24 -31 57 -41 73 -31 50
-25 54 43 30 34 -12 68 -24 74 -26z m-1393 -214 c6 -31 4 -35 -14 -35 -37 0
-59 19 -71 62 -13 48 -6 106 18 152 l16 31 23 -88 c12 -48 25 -103 28 -122z
m1560 155 l26 -10 0 -135 0 -136 -32 3 -33 3 -3 143 c-1 86 1 142 7 142 5 0
21 -4 35 -10z m-783 -133 c32 -70 59 -132 59 -138 0 -6 -15 -9 -32 -7 -29 3
-36 10 -60 61 l-28 57 -102 0 -103 1 30 24 c25 21 41 25 92 25 l62 0 -15 36
c-14 33 -14 38 2 55 10 11 22 18 27 16 5 -1 36 -60 68 -130z m2589 108 c46
-34 59 -60 60 -117 0 -39 -5 -54 -32 -84 l-33 -37 -7 34 c-4 19 -5 50 -2 70 4
26 -1 48 -15 75 -21 39 -28 84 -13 84 4 0 24 -11 42 -25z m-1552 -65 c1 0 2
-47 2 -104 l0 -103 55 -37 c46 -30 63 -36 110 -36 l55 0 0 85 0 85 45 0 c26 0
86 -14 135 -31 l89 -31 -27 -22 c-107 -88 -1055 -807 -1058 -803 -3 3 -34 159
-69 348 -36 189 -67 357 -71 373 l-6 30 25 -17 c16 -10 46 -17 76 -17 l50 0 3
83 3 82 25 -48 c18 -36 39 -57 81 -83 52 -31 129 -48 114 -24 -6 9 31 90 41
90 3 0 4 -5 2 -12 -3 -7 22 -29 54 -50 49 -32 67 -38 111 -38 l52 0 -3 160 -3
160 53 -20 c29 -11 54 -20 56 -20z m97 -111 l0 -74 -32 -3 -33 -3 0 90 0 91
33 -13 32 -13 0 -75z m390 -1 l7 -37 -62 20 -62 21 49 28 c53 31 57 29 68 -32z
m115 12 c0 -5 17 -29 38 -52 35 -39 36 -41 12 -35 -14 3 -42 9 -63 12 -20 4
-39 10 -41 14 -6 9 34 71 45 71 5 0 9 -4 9 -10z m750 -16 c42 -16 99 -18 134
-4 23 8 26 7 32 -15 3 -14 4 -31 1 -39 -11 -29 -144 -24 -220 7 -35 15 -36 17
-26 47 9 23 16 29 28 24 9 -4 32 -13 51 -20z m-2996 -11 c8 -30 0 -38 -58 -54
-47 -13 -62 -8 -68 24 -5 23 -1 27 51 40 31 8 59 15 62 16 4 0 10 -11 13 -26z
m246 -42 c-6 -12 -18 -21 -27 -21 -13 0 -12 5 7 25 27 29 37 27 20 -4z m-670
-125 l334 -114 57 -423 c31 -233 56 -425 55 -426 -2 -2 -725 973 -774 1044
-12 18 -19 33 -14 33 4 0 159 -51 342 -114z m2719 84 c49 -11 106 -29 126 -41
20 -12 39 -19 42 -16 3 4 14 2 25 -4 11 -6 54 -12 96 -14 66 -3 589 -108 601
-121 3 -2 0 -8 -5 -13 -39 -35 -917 -743 -927 -747 -9 -3 -20 112 -45 473 -18
263 -33 484 -32 491 0 16 15 15 119 -8z m-109 -480 c18 -269 32 -492 29 -494
-5 -5 -1127 159 -1134 166 -5 5 1053 818 1064 818 4 0 22 -220 41 -490z
m-2135 412 c-6 -4 -35 -29 -66 -55 l-57 -47 -11 45 c-6 24 -11 46 -11 49 0 3
15 3 33 0 17 -3 46 0 62 5 38 12 62 13 50 3z m3198 -32 c-11 -28 -19 -37 -25
-28 -16 26 -9 56 15 61 12 2 23 5 24 6 1 0 -6 -17 -14 -39z m-3648 -420 c164
-223 310 -420 324 -439 43 -57 1 -25 -178 136 l-163 148 -154 295 c-85 162
-148 288 -140 280 7 -8 147 -197 311 -420z m3839 218 c-468 -618 -589 -777
-591 -774 -3 3 375 867 382 875 6 5 340 88 344 85 1 -1 -59 -85 -135 -186z
m-2909 -243 c253 -141 463 -260 467 -264 4 -4 -206 -67 -467 -140 -262 -74
-477 -132 -479 -130 -1 2 -26 182 -55 399 -29 217 -55 412 -58 433 l-6 37 69
-38 c38 -22 276 -155 529 -297z m2646 283 c-25 -65 -394 -894 -401 -901 -6 -7
-468 150 -506 172 -9 5 897 751 912 751 2 0 0 -10 -5 -22z m-1967 -932 c97
-200 176 -366 176 -369 0 -2 -290 100 -645 226 -355 127 -645 234 -645 237 0
4 898 264 931 269 3 1 85 -163 183 -363z m426 279 c289 -42 533 -79 543 -83
13 -5 -75 -74 -365 -286 -211 -153 -387 -278 -392 -278 -8 1 -356 707 -356
724 0 5 10 6 23 3 12 -2 258 -39 547 -80z m856 -182 c135 -48 239 -90 232 -94
-22 -12 -1220 -360 -1224 -356 -6 6 719 535 734 536 8 1 124 -38 258 -86z
m-1778 -254 c298 -107 539 -195 534 -197 -5 -1 -157 20 -338 49 l-329 51 -210
140 c-115 78 -214 145 -220 151 -12 12 -77 35 563 -194z"/>
<path d="M3510 3332 c0 -5 18 -18 40 -31 22 -12 40 -20 40 -18 0 2 -18 16 -40
31 -22 14 -40 23 -40 18z"/>
<path d="M3095 3307 c50 -35 75 -49 75 -44 0 9 -72 57 -85 57 -5 0 -1 -6 10
-13z"/>
<path d="M3510 3303 c0 -10 70 -56 76 -50 2 2 -14 16 -36 31 -22 14 -40 23
-40 19z"/>
<path d="M3080 3286 c0 -7 82 -57 86 -53 2 2 -14 16 -36 31 -38 25 -50 30 -50
22z"/>
<path d="M3516 3262 c15 -14 84 -54 84 -49 0 6 -78 57 -87 57 -4 0 -3 -4 3 -8z"/>
<path d="M3080 3257 c0 -9 72 -57 85 -57 5 0 1 6 -10 13 -50 35 -75 49 -75 44z"/>
<path d="M3510 3237 c0 -6 77 -57 87 -57 4 0 -1 6 -12 13 -48 33 -75 49 -75
44z"/>
<path d="M3080 3226 c0 -3 20 -19 45 -36 25 -17 45 -29 45 -26 0 3 -20 19 -45
36 -25 17 -45 29 -45 26z"/>
<path d="M3517 3198 c15 -17 78 -54 70 -40 -4 5 -24 20 -44 32 -20 12 -32 16
-26 8z"/>
<path d="M3095 3177 c48 -33 75 -49 75 -44 0 6 -77 57 -87 57 -4 0 1 -6 12
-13z"/>
<path d="M3525 3157 c50 -35 75 -49 75 -44 0 9 -72 57 -85 57 -5 0 -1 -6 10
-13z"/>
<path d="M3080 3157 c0 -6 79 -57 87 -57 5 0 -1 8 -12 16 -24 19 -75 46 -75
41z"/>
<path d="M3510 3136 c0 -7 82 -57 86 -53 2 2 -14 16 -36 31 -38 25 -50 30 -50
22z"/>
<path d="M3080 3127 c0 -3 20 -20 45 -37 25 -17 45 -27 45 -23 0 5 -10 14 -22
22 -13 8 -33 21 -45 29 -13 8 -23 12 -23 9z"/>
<path d="M3517 3099 c6 -8 26 -23 45 -33 21 -13 29 -14 21 -5 -6 8 -26 23 -45
33 -21 13 -29 14 -21 5z"/>
<path d="M3096 3075 c10 -8 24 -14 29 -14 6 0 1 6 -9 14 -11 8 -24 15 -30 15
-5 0 -1 -7 10 -15z"/>
<path d="M3510 3073 c0 -5 10 -14 23 -22 12 -8 32 -21 45 -29 42 -27 22 -3
-23 28 -25 17 -45 27 -45 23z"/>
<path d="M3515 3030 c3 -5 11 -10 16 -10 6 0 7 5 4 10 -3 6 -11 10 -16 10 -6
0 -7 -4 -4 -10z"/>
<path d="M4304 3211 c4 -6 16 -16 28 -22 15 -8 18 -8 14 0 -4 6 -16 16 -28 22
-15 8 -18 8 -14 0z"/>
<path d="M4330 3163 c0 -5 16 -18 35 -31 19 -12 35 -19 35 -15 0 5 -16 18 -35
31 -19 12 -35 19 -35 15z"/>
<path d="M4347 3119 c12 -15 73 -53 73 -46 0 2 -19 17 -42 32 -24 16 -38 22
-31 14z"/>
<path d="M4350 3086 c0 -3 20 -19 45 -36 25 -17 45 -29 45 -26 0 3 -20 19 -45
36 -25 17 -45 29 -45 26z"/>
<path d="M4367 3039 c6 -8 26 -23 45 -33 21 -13 29 -14 21 -5 -6 8 -26 23 -45
33 -21 13 -29 14 -21 5z"/>
<path d="M4350 3016 c0 -7 82 -57 86 -53 2 2 -14 16 -36 31 -38 25 -50 30 -50
22z"/>
<path d="M4350 2987 c0 -3 20 -20 45 -37 25 -17 45 -27 45 -23 0 5 -10 14 -22
22 -13 8 -33 21 -45 29 -13 8 -23 12 -23 9z"/>
<path d="M4350 2953 c0 -5 10 -14 23 -22 12 -8 32 -21 45 -29 42 -27 22 -3
-23 28 -25 17 -45 27 -45 23z"/>
<path d="M4340 2927 c0 -3 20 -20 45 -37 25 -17 45 -27 45 -23 0 5 -10 14 -22
22 -13 8 -33 21 -45 29 -13 8 -23 12 -23 9z"/>
<path d="M4330 2896 c0 -7 82 -57 86 -53 2 2 -14 16 -36 31 -38 25 -50 30 -50
22z"/>
<path d="M1610 3337 c0 -6 77 -57 87 -57 4 0 -1 6 -12 13 -48 33 -75 49 -75
44z"/>
<path d="M1610 3306 c0 -7 82 -57 86 -53 2 2 -14 16 -36 31 -38 25 -50 30 -50
22z"/>
<path d="M1610 3277 c0 -3 20 -20 45 -37 25 -17 45 -27 45 -23 0 5 -10 14 -22
22 -13 8 -33 21 -45 29 -13 8 -23 12 -23 9z"/>
<path d="M1260 3247 c0 -9 72 -57 85 -57 5 0 1 6 -10 13 -50 35 -75 49 -75 44z"/>
<path d="M1625 3227 c50 -35 75 -49 75 -44 0 9 -72 57 -85 57 -5 0 -1 -6 10
-13z"/>
<path d="M1250 3216 c0 -7 82 -57 86 -53 2 2 -14 16 -36 31 -38 25 -50 30 -50
22z"/>
<path d="M1610 3206 c0 -7 82 -57 86 -53 2 2 -14 16 -36 31 -38 25 -50 30 -50
22z"/>
<path d="M1244 3185 c11 -8 24 -15 30 -15 5 0 1 7 -10 15 -10 8 -23 14 -29 14
-5 0 -1 -6 9 -14z"/>
<path d="M1610 3177 c0 -9 72 -57 85 -57 5 0 1 6 -10 13 -50 35 -75 49 -75 44z"/>
<path d="M1610 3146 c0 -3 20 -19 45 -36 25 -17 45 -29 45 -26 0 3 -20 19 -45
36 -25 17 -45 29 -45 26z"/>
<path d="M1625 3097 c48 -33 75 -49 75 -44 0 6 -77 57 -87 57 -4 0 1 -6 12
-13z"/>
<path d="M1610 3077 c0 -6 79 -57 87 -57 5 0 -1 8 -12 16 -24 19 -75 46 -75
41z"/>
<path d="M1610 3047 c0 -3 20 -20 45 -37 25 -17 45 -27 45 -23 0 5 -10 14 -22
22 -13 8 -33 21 -45 29 -13 8 -23 12 -23 9z"/>
<path d="M1625 2997 c50 -35 75 -49 75 -44 0 9 -72 57 -85 57 -5 0 -1 -6 10
-13z"/>
<path d="M1610 2976 c0 -7 82 -57 86 -53 2 2 -14 16 -36 31 -38 25 -50 30 -50
22z"/>
<path d="M1610 2947 c0 -3 20 -20 45 -37 25 -17 45 -27 45 -23 0 5 -10 14 -22
22 -13 8 -33 21 -45 29 -13 8 -23 12 -23 9z"/>
<path d="M885 2894 c36 -28 61 -36 30 -10 -16 14 -34 26 -40 26 -5 -1 -1 -8
10 -16z"/>
<path d="M1625 2897 c50 -35 75 -49 75 -44 0 9 -72 57 -85 57 -5 0 -1 -6 10
-13z"/>
<path d="M1610 2876 c0 -6 66 -46 76 -46 5 0 -8 11 -28 25 -36 24 -48 30 -48
21z"/>
<path d="M1617 2839 c7 -7 15 -10 18 -7 3 3 -2 9 -12 12 -14 6 -15 5 -6 -5z"/>
<path d="M1267 2809 c6 -8 26 -23 45 -33 21 -13 29 -14 21 -5 -6 8 -26 23 -45
33 -21 13 -29 14 -21 5z"/>
<path d="M1280 2766 c0 -6 66 -46 76 -46 5 0 -8 11 -28 25 -36 24 -48 30 -48
21z"/>
<path d="M1280 2737 c0 -9 72 -57 85 -57 5 0 1 6 -10 13 -50 35 -75 49 -75 44z"/>
<path d="M1250 2723 c1 -8 90 -66 90 -58 0 2 -20 18 -45 35 -25 17 -45 27 -45
23z"/>
<path d="M1220 2706 c0 -7 82 -57 86 -53 2 2 -14 16 -36 31 -38 25 -50 30 -50
22z"/>
<path d="M1181 2696 c13 -11 89 -55 89 -51 0 7 -73 55 -84 55 -5 0 -7 -2 -5
-4z"/>
<path d="M1550 2686 c0 -6 66 -46 76 -46 5 0 -8 11 -28 25 -36 24 -48 30 -48
21z"/>
<path d="M1600 2686 c0 -7 71 -49 75 -44 3 2 -13 15 -35 27 -22 12 -40 20 -40
17z"/>
<path d="M1650 2686 c0 -6 66 -46 76 -46 5 0 -8 11 -28 25 -36 24 -48 30 -48
21z"/>
<path d="M1700 2686 c0 -7 71 -49 75 -44 3 2 -13 15 -35 27 -22 12 -40 20 -40
17z"/>
<path d="M1750 2686 c0 -6 66 -46 76 -46 5 0 -8 11 -28 25 -36 24 -48 30 -48
21z"/>
<path d="M1920 2776 c0 -3 20 -19 45 -36 25 -17 45 -29 45 -26 0 3 -20 19 -45
36 -25 17 -45 29 -45 26z"/>
<path d="M1935 2727 c50 -35 75 -49 75 -44 0 9 -72 57 -85 57 -5 0 -1 -6 10
-13z"/>
<path d="M1920 2706 c0 -7 82 -57 86 -53 2 2 -14 16 -36 31 -38 25 -50 30 -50
22z"/>
<path d="M995 3217 c50 -35 75 -49 75 -44 0 9 -72 57 -85 57 -5 0 -1 -6 10
-13z"/>
<path d="M950 3216 c0 -7 82 -57 86 -53 2 2 -14 16 -36 31 -38 25 -50 30 -50
22z"/>
<path d="M920 3207 c0 -3 20 -20 45 -37 25 -17 45 -27 45 -23 0 5 -10 14 -22
22 -13 8 -33 21 -45 29 -13 8 -23 12 -23 9z"/>
<path d="M900 3187 c0 -9 72 -57 85 -57 5 0 1 6 -10 13 -50 35 -75 49 -75 44z"/>
<path d="M880 3167 c0 -3 20 -20 45 -37 25 -17 45 -27 45 -23 0 5 -10 14 -22
22 -13 8 -33 21 -45 29 -13 8 -23 12 -23 9z"/>
<path d="M860 3147 c0 -3 20 -20 45 -37 25 -17 45 -27 45 -23 0 5 -10 14 -22
22 -13 8 -33 21 -45 29 -13 8 -23 12 -23 9z"/>
<path d="M2370 3247 c0 -9 72 -57 85 -57 5 0 1 6 -10 13 -50 35 -75 49 -75 44z"/>
<path d="M2336 3232 c15 -14 84 -54 84 -49 0 6 -78 57 -87 57 -4 0 -3 -4 3 -8z"/>
<path d="M2431 3237 c2 -2 20 -14 39 -26 l35 -23 -30 26 c-16 14 -34 26 -39
26 -5 0 -7 -1 -5 -3z"/>
<path d="M2300 3226 c0 -8 73 -56 84 -56 13 0 -1 12 -46 39 -21 13 -38 20 -38
17z"/>
<path d="M2313 3180 c62 -39 76 -39 17 0 -25 16 -49 30 -54 30 -6 0 11 -13 37
-30z"/>
<path d="M2250 3196 c0 -7 91 -69 95 -64 2 1 -19 18 -46 36 -27 18 -49 30 -49
28z"/>
<path d="M2240 3167 c0 -6 78 -57 87 -57 4 0 3 4 -2 8 -16 14 -85 54 -85 49z"/>
<path d="M2220 3147 c0 -6 79 -57 87 -57 5 0 -1 8 -12 16 -24 19 -75 46 -75
41z"/>
<path d="M2219 3111 c34 -26 81 -53 81 -47 0 7 -87 66 -97 66 -4 0 3 -9 16
-19z"/>
<path d="M2230 3070 c25 -16 50 -30 55 -30 6 0 -11 14 -37 30 -62 39 -76 39
-18 0z"/>
<path d="M2190 3066 c0 -7 82 -57 86 -53 2 2 -14 16 -36 31 -38 25 -50 30 -50
22z"/>
<path d="M2197 3029 c6 -8 26 -23 45 -33 21 -13 29 -14 21 -5 -6 8 -26 23 -45
33 -21 13 -29 14 -21 5z"/>
<path d="M2190 3003 c0 -10 70 -56 76 -50 2 2 -14 16 -36 31 -22 14 -40 23
-40 19z"/>
<path d="M2190 2966 c0 -7 82 -57 86 -53 2 2 -14 16 -36 31 -38 25 -50 30 -50
22z"/>
<path d="M2210 2926 c0 -9 70 -59 75 -54 3 3 -13 17 -35 32 -22 14 -40 24 -40
22z"/>
<path d="M3930 3226 c0 -6 66 -46 76 -46 5 0 -8 11 -28 25 -36 24 -48 30 -48
21z"/>
<path d="M3980 3226 c0 -6 66 -46 76 -46 5 0 -8 11 -28 25 -36 24 -48 30 -48
21z"/>
<path d="M4030 3226 c0 -6 66 -46 76 -46 5 0 -8 11 -28 25 -36 24 -48 30 -48
21z"/>
<path d="M3930 3190 c14 -11 30 -20 35 -20 6 0 -1 9 -15 20 -14 11 -29 20 -35
20 -5 0 1 -9 15 -20z"/>
<path d="M3880 3160 c0 -5 5 -10 11 -10 5 0 7 5 4 10 -3 6 -8 10 -11 10 -2 0
-4 -4 -4 -10z"/>
<path d="M3900 3110 c14 -11 30 -20 35 -20 6 0 -1 9 -15 20 -14 11 -29 20 -35
20 -5 0 1 -9 15 -20z"/>
<path d="M3880 3096 c0 -7 76 -56 87 -56 4 0 -1 6 -12 13 -51 35 -75 49 -75
43z"/>
<path d="M3880 3062 c0 -4 21 -19 45 -34 25 -15 45 -24 45 -20 0 4 -21 19 -45
34 -25 15 -45 24 -45 20z"/>
<path d="M2747 3129 c6 -8 26 -23 45 -33 21 -13 29 -14 21 -5 -6 8 -26 23 -45
33 -21 13 -29 14 -21 5z"/>
<path d="M2757 3089 c6 -8 26 -23 45 -33 21 -13 29 -14 21 -5 -6 8 -26 23 -45
33 -21 13 -29 14 -21 5z"/>
<path d="M2720 2883 c1 -8 90 -66 90 -58 0 2 -20 18 -45 35 -25 17 -45 27 -45
23z"/>
<path d="M2710 2857 c0 -6 78 -57 87 -57 4 0 3 4 -2 8 -16 14 -85 54 -85 49z"/>
<path d="M2690 2836 c0 -7 76 -56 87 -56 4 0 -1 6 -12 13 -51 35 -75 49 -75
43z"/>
<path d="M2680 2813 c0 -5 10 -14 23 -22 12 -8 32 -21 45 -29 42 -27 22 -3
-23 28 -25 17 -45 27 -45 23z"/>
<path d="M2660 2793 c0 -5 10 -14 23 -22 12 -8 32 -21 45 -29 42 -27 22 -3
-23 28 -25 17 -45 27 -45 23z"/>
<path d="M2640 2773 c0 -5 10 -14 23 -22 12 -8 32 -21 45 -29 42 -27 22 -3
-23 28 -25 17 -45 27 -45 23z"/>
<path d="M2629 2741 c34 -26 81 -53 81 -47 0 7 -87 66 -97 66 -4 0 3 -9 16
-19z"/>
<path d="M2590 2736 c0 -7 82 -57 86 -53 2 2 -14 16 -36 31 -38 25 -50 30 -50
22z"/>
<path d="M2570 2716 c0 -2 18 -15 40 -30 22 -14 40 -23 40 -19 0 5 -16 18 -35
31 -34 21 -45 26 -45 18z"/>
<path d="M2570 2680 c25 -16 50 -30 55 -30 6 0 -10 14 -35 30 -25 16 -49 30
-55 30 -5 0 10 -14 35 -30z"/>
<path d="M2500 2696 c0 -7 82 -57 86 -53 2 2 -14 16 -36 31 -38 25 -50 30 -50
22z"/>
<path d="M2475 2677 c50 -35 75 -49 75 -44 0 9 -72 57 -85 57 -5 0 -1 -6 10
-13z"/>
<path d="M2430 2676 c0 -6 66 -46 76 -46 5 0 -8 11 -28 25 -36 24 -48 30 -48
21z"/>
<path d="M3095 2977 c50 -35 75 -49 75 -44 0 9 -72 57 -85 57 -5 0 -1 -6 10
-13z"/>
<path d="M3080 2956 c0 -7 82 -57 86 -53 2 2 -14 16 -36 31 -38 25 -50 30 -50
22z"/>
<path d="M3090 2916 c0 -2 18 -15 40 -30 22 -14 40 -23 40 -19 0 5 -16 18 -35
31 -34 21 -45 26 -45 18z"/>
<path d="M3100 2876 c0 -6 66 -46 76 -46 5 0 -8 11 -28 25 -36 24 -48 30 -48
21z"/>
<path d="M3510 2973 c0 -10 70 -56 76 -50 2 2 -14 16 -36 31 -22 14 -40 23
-40 19z"/>
<path d="M3516 2932 c15 -14 84 -54 84 -49 0 6 -78 57 -87 57 -4 0 -3 -4 3 -8z"/>
<path d="M3500 2913 c0 -5 20 -20 45 -35 25 -15 45 -26 45 -23 0 2 -20 18 -45
35 -25 17 -45 27 -45 23z"/>
<path d="M3506 2872 c15 -14 84 -54 84 -49 0 6 -78 57 -87 57 -4 0 -3 -4 3 -8z"/>
<path d="M3490 2856 c0 -3 20 -19 45 -36 25 -17 45 -29 45 -26 0 3 -20 19 -45
36 -25 17 -45 29 -45 26z"/>
<path d="M3480 2827 c0 -6 79 -57 87 -57 5 0 -1 8 -12 16 -24 19 -75 46 -75
41z"/>
<path d="M3470 2803 c0 -5 10 -14 23 -22 12 -8 32 -21 45 -29 42 -27 22 -3
-23 28 -25 17 -45 27 -45 23z"/>
<path d="M3490 2750 c25 -16 50 -30 55 -30 6 0 -10 14 -35 30 -25 16 -49 30
-55 30 -5 0 10 -14 35 -30z"/>
<path d="M3470 2730 c25 -16 50 -30 55 -30 6 0 -10 14 -35 30 -25 16 -49 30
-55 30 -5 0 10 -14 35 -30z"/>
<path d="M3450 2710 c25 -16 50 -30 55 -30 6 0 -10 14 -35 30 -25 16 -49 30
-55 30 -5 0 10 -14 35 -30z"/>
<path d="M3405 2707 c50 -35 75 -49 75 -44 0 9 -72 57 -85 57 -5 0 -1 -6 10
-13z"/>
<path d="M3360 2706 c0 -7 82 -57 86 -53 2 2 -14 16 -36 31 -38 25 -50 30 -50
22z"/>
<path d="M3330 2697 c0 -9 72 -57 85 -57 5 0 1 6 -10 13 -50 35 -75 49 -75 44z"/>
<path d="M3290 2686 c0 -7 82 -57 86 -53 2 2 -14 16 -36 31 -38 25 -50 30 -50
22z"/>
<path d="M3233 2654 c21 -14 41 -24 43 -21 6 5 -59 47 -72 47 -5 0 9 -12 29
-26z"/>
<path d="M3283 2654 c21 -14 41 -24 43 -21 6 5 -59 47 -72 47 -5 0 9 -12 29
-26z"/>
<path d="M3880 2933 c0 -5 10 -14 23 -22 12 -8 32 -21 45 -29 42 -27 22 -3
-23 28 -25 17 -45 27 -45 23z"/>
<path d="M3880 2896 c0 -7 82 -57 86 -53 2 2 -14 16 -36 31 -38 25 -50 30 -50
22z"/>
<path d="M3899 2851 c13 -12 28 -21 35 -21 12 0 -5 14 -39 31 -16 8 -15 6 4
-10z"/>
<path d="M4290 2827 c0 -9 72 -57 85 -57 5 0 1 6 -10 13 -50 35 -75 49 -75 44z"/>
<path d="M4270 2807 c0 -9 72 -57 85 -57 5 0 1 6 -10 13 -50 35 -75 49 -75 44z"/>
<path d="M4250 2786 c0 -7 76 -56 87 -56 4 0 -1 6 -12 13 -51 35 -75 49 -75
43z"/>
<path d="M4230 2766 c0 -7 76 -56 87 -56 4 0 -1 6 -12 13 -51 35 -75 49 -75
43z"/>
<path d="M4210 2747 c0 -6 77 -57 87 -57 4 0 -1 6 -12 13 -48 33 -75 49 -75
44z"/>
<path d="M4180 2732 c0 -8 80 -55 85 -50 2 2 -17 15 -41 30 -24 15 -44 24 -44
20z"/>
<path d="M4165 2707 c51 -35 75 -49 75 -43 0 7 -76 56 -87 56 -4 0 1 -6 12
-13z"/>
<path d="M950 2686 c0 -2 7 -7 16 -10 8 -3 12 -2 9 4 -6 10 -25 14 -25 6z"/>
<path d="M1038 2659 c18 -12 35 -19 38 -16 3 3 -8 13 -25 21 -43 23 -52 19
-13 -5z"/>
<path d="M1061 2677 c2 -2 22 -14 44 -26 l40 -23 -30 25 c-16 15 -36 26 -44
27 -8 0 -12 -1 -10 -3z"/>
<path d="M3950 2686 c0 -7 71 -49 75 -44 3 2 -13 15 -35 27 -22 12 -40 20 -40
17z"/>
<path d="M4000 2686 c0 -6 66 -46 76 -46 5 0 -8 11 -28 25 -36 24 -48 30 -48
21z"/>
<path d="M3900 2650 c8 -5 20 -10 25 -10 6 0 3 5 -5 10 -8 5 -19 10 -25 10 -5
0 -3 -5 5 -10z"/>
<path d="M2850 2160 l0 -120 65 0 c40 0 78 6 96 16 66 34 77 149 18 199 -27
22 -40 25 -105 25 l-74 0 0 -120z m188 17 c8 -41 -28 -107 -58 -107 -11 0 -14
113 -3 124 14 14 58 1 61 -17z"/>
</g>
</svg>
